# xmcd
#
# Track frame offsets: 
#        150
#        21813
#        40513
#        59731
#        76763
#        100768
#        127408
#        152874
#        172205
#        199334
#        212788
#
# Disc length: 3047 seconds
#
# Revision: 0
# Processed by: cddbd v1.5.2PL0 Copyright (c) Steve Scherf et al.
# Submitted via: ExactAudioCopyFreeDBPlugin 1.0
#
DISCID=9d0be50b
DTITLE=Dave Stewart - The Ringmaster General
DYEAR=2012
DGENRE=Blues
TTITLE0=I Got Love
TTITLE1=Just Another Fall
TTITLE2=A Different Man Now
TTITLE3=Drowning In The Blues
TTITLE4=Girl In A Catsuit
TTITLE5=Slow Motion Addict No. 2
TTITLE6=You Took My Love
TTITLE7=God Only Knows You Now
TTITLE8=The Ringmaster General
TTITLE9=Story Of Success
TTITLE10=A New Song For Nashville
EXTD=
EXTT0=
EXTT1=
EXTT2=
EXTT3=
EXTT4=
EXTT5=
EXTT6=
EXTT7=
EXTT8=
EXTT9=
EXTT10=
PLAYORDER=
